<svg version="1.1" xmlns="http://www.w3.org/2000/svg" viewBox="0 0 117.67525151090831 139.73315199366135" width="235.35050302181662" height="279.4663039873227"><!-- svg-source:excalidraw --><metadata></metadata><defs><style class="style-fonts">
      @font-face { font-family: Virgil; }</style></defs><rect x="0" y="0" width="117.67525151090831" height="139.73315199366135" fill="#ffffff"></rect><g stroke-linecap="round" transform="translate(10 10) rotate(0 43.92912551591962 59.866575996830676)"><path d="M0.45 -0.71 L87.83 -1.82 L88.58 117.75 L0 120.99" stroke="none" stroke-width="0" fill="#f1dd4d"></path><path d="M0 0 C20.99 -0.94, 46.42 -0.13, 87.86 0 M0 0 C26.17 0.66, 53.43 -0.65, 87.86 0 M87.86 0 C86.93 42.92, 87.64 85.68, 87.86 119.73 M87.86 0 C87.05 28.45, 87.03 56.7, 87.86 119.73 M87.86 119.73 C53.83 120.47, 20.16 117.99, 0 119.73 M87.86 119.73 C66.9 118.84, 46.29 119.8, 0 119.73 M0 119.73 C0.64 84, -0.03 47.38, 0 0 M0 119.73 C-1.04 92.78, -0.59 65.56, 0 0" stroke="#000000" stroke-width="4" fill="none"></path></g><g stroke-linecap="round" transform="translate(49.33931401090831 24.41273387487354) rotate(0 29.16796875 15)"><path d="M-0.03 -1.82 L59.05 -1.98 L58.33 31.26 L-1.51 29.19" stroke="none" stroke-width="0" fill="#fff"></path><path d="M0 0 C23.52 0.71, 45.78 1.05, 58.34 0 M0 0 C19.04 -0.91, 39.39 -0.22, 58.34 0 M58.34 0 C57.52 11.71, 56.81 20.78, 58.34 30 M58.34 0 C58.4 7.91, 59.15 14.75, 58.34 30 M58.34 30 C40.75 28.64, 23.71 30.25, 0 30 M58.34 30 C43.44 30.25, 29.19 28.78, 0 30 M0 30 C-1.11 18.05, -1.43 9.09, 0 0 M0 30 C0.4 23.18, 0.25 16.72, 0 0" stroke="#000000" stroke-width="4" fill="none"></path></g><g transform="translate(30.294643442086908 80.53339864222971) rotate(0 24.5 22.5)"><text x="0" y="31.716" font-family="Virgil, Segoe UI Emoji" font-size="36px" fill="#000000" text-anchor="start" style="white-space: pre;" direction="ltr" dominant-baseline="alphabetic">{;}</text></g><g transform="translate(68.171627569071 28.288285329977953) rotate(0 13 12.5)"><text x="0" y="17.619999999999997" font-family="Virgil, Segoe UI Emoji" font-size="20px" fill="#000000" text-anchor="start" style="white-space: pre;" direction="ltr" dominant-baseline="alphabetic">JS</text></g></svg>