<?xml version="1.0" encoding="UTF-8"?>
<svg width="1800" height="520" viewBox="0 50 1800 520" xmlns="http://www.w3.org/2000/svg">
  <defs>
    <!-- 그라디언트 정의 -->
    <linearGradient id="editorGrad" x1="0%" y1="0%" x2="100%" y2="0%">
      <stop offset="0%" style="stop-color:#9B59B6;stop-opacity:0.9"/>
      <stop offset="100%" style="stop-color:#8E44AD;stop-opacity:0.9"/>
    </linearGradient>
    <linearGradient id="softwareIDEGrad" x1="0%" y1="0%" x2="100%" y2="0%">
      <stop offset="0%" style="stop-color:#3498DB;stop-opacity:0.9"/>
      <stop offset="100%" style="stop-color:#2980B9;stop-opacity:0.9"/>
    </linearGradient>
    <linearGradient id="dataIDEGrad" x1="0%" y1="0%" x2="100%" y2="0%">
      <stop offset="0%" style="stop-color:#FF8C00;stop-opacity:1"/>
      <stop offset="100%" style="stop-color:#FF6347;stop-opacity:1"/>
    </linearGradient>
    <linearGradient id="cloudGrad" x1="0%" y1="0%" x2="100%" y2="0%">
      <stop offset="0%" style="stop-color:#27AE60;stop-opacity:1"/>
      <stop offset="100%" style="stop-color:#2ECC71;stop-opacity:1"/>
    </linearGradient>
    <linearGradient id="aiGrad" x1="0%" y1="0%" x2="100%" y2="0%">
      <stop offset="0%" style="stop-color:#E74C3C;stop-opacity:1"/>
      <stop offset="50%" style="stop-color:#FF6B6B;stop-opacity:1"/>
      <stop offset="100%" style="stop-color:#C0392B;stop-opacity:1"/>
    </linearGradient>
    <linearGradient id="convergeGrad" x1="0%" y1="0%" x2="100%" y2="0%">
      <stop offset="0%" style="stop-color:#FF6B6B;stop-opacity:1"/>
      <stop offset="25%" style="stop-color:#4ECDC4;stop-opacity:1"/>
      <stop offset="50%" style="stop-color:#45B7D1;stop-opacity:1"/>
      <stop offset="75%" style="stop-color:#96CEB4;stop-opacity:1"/>
      <stop offset="100%" style="stop-color:#FECA57;stop-opacity:1"/>
    </linearGradient>
    
    <!-- 필터 효과 -->
    <filter id="shadow" x="-50%" y="-50%" width="200%" height="200%">
      <feDropShadow dx="2" dy="2" stdDeviation="3" flood-opacity="0.25"/>
    </filter>
    <filter id="glow">
      <feGaussianBlur stdDeviation="4" result="b"/>
      <feMerge><feMergeNode in="b"/><feMergeNode in="SourceGraphic"/></feMerge>
    </filter>
    <filter id="aiGlow">
      <feGaussianBlur stdDeviation="6" result="b"/>
      <feColorMatrix type="matrix" values="1 0.3 0.3 0 0  0 1 0.3 0 0  0.3 0.3 1 0 0  0 0 0 1 0" result="colored"/>
      <feMerge><feMergeNode in="colored"/><feMergeNode in="SourceGraphic"/></feMerge>
    </filter>
    
    <!-- 화살표 마커 -->
    <marker id="arrow" markerWidth="10" markerHeight="7" refX="10" refY="3.5" orient="auto">
      <polygon points="0 0, 10 3.5, 0 7" fill="#7f8c8d"/>
    </marker>
  </defs>

  <!-- 배경 -->
  <rect width="1800" height="520" fill="#f8fafc"/>
  
  <!-- 시대 구분선 -->
  <line x1="300" y1="90" x2="300" y2="450" stroke="#95a5a6" stroke-width="1" stroke-dasharray="5,3" opacity="0.5"/>
  <text x="305" y="110" font-size="11" fill="#95a5a6">1970s</text>
  
  <line x1="500" y1="90" x2="500" y2="450" stroke="#95a5a6" stroke-width="1" stroke-dasharray="5,3" opacity="0.5"/>
  <text x="505" y="110" font-size="11" fill="#95a5a6">1980s</text>
  
  <line x1="700" y1="90" x2="700" y2="450" stroke="#95a5a6" stroke-width="1" stroke-dasharray="5,3" opacity="0.5"/>
  <text x="705" y="110" font-size="11" fill="#95a5a6">1990s</text>
  
  <line x1="900" y1="90" x2="900" y2="450" stroke="#95a5a6" stroke-width="1" stroke-dasharray="5,3" opacity="0.5"/>
  <text x="905" y="110" font-size="11" fill="#95a5a6">2000s</text>
  
  <line x1="1200" y1="90" x2="1200" y2="450" stroke="#27AE60" stroke-width="2" stroke-dasharray="8,4" opacity="0.6"/>
  <text x="1205" y="110" font-size="12" fill="#27AE60" font-weight="bold">2010s-클라우드</text>
  
  <line x1="1400" y1="90" x2="1400" y2="450" stroke="#E74C3C" stroke-width="3" stroke-dasharray="8,4" opacity="0.8"/>
  <text x="1405" y="110" font-size="13" fill="#E74C3C" font-weight="bold">2020s-AI</text>

  <!-- =============== 상단: 초기 편집기/텍스트 도구 =============== -->
  <g id="editor-timeline">
    <rect x="80" y="130" width="1300" height="70" fill="url(#editorGrad)" opacity="0.08" rx="12"/>
    <text x="100" y="150" font-size="14" font-weight="bold" fill="#8E44AD">초기 편집기 · 텍스트 도구</text>
    
    <!-- 카드펀치/TTY (1950s-60s) -->
    <g transform="translate(150,170)">
      <rect x="-50" y="-15" width="100" height="30" rx="8" fill="#9B59B6" filter="url(#shadow)"/>
      <text x="0" y="0" text-anchor="middle" font-size="10" fill="white" font-weight="bold">카드펀치/TTY</text>
      <text x="0" y="12" text-anchor="middle" font-size="8" fill="white">(1950s-60s)</text>
    </g>
    
    <!-- ed/ex (1969-76) -->
    <line x1="200" y1="170" x2="250" y2="170" stroke="#9B59B6" stroke-width="1" marker-end="url(#arrow)"/>
    <g transform="translate(300,170)">
      <rect x="-35" y="-15" width="70" height="30" rx="8" fill="#8E44AD" filter="url(#shadow)"/>
      <text x="0" y="0" text-anchor="middle" font-size="10" fill="white" font-weight="bold">ed/ex</text>
      <text x="0" y="12" text-anchor="middle" font-size="8" fill="white">(1969-76)</text>
    </g>
    
    <!-- vi (1976) -->
    <line x1="335" y1="170" x2="385" y2="170" stroke="#9B59B6" stroke-width="1" marker-end="url(#arrow)"/>
    <g transform="translate(420,170)">
      <rect x="-25" y="-15" width="50" height="30" rx="8" fill="#7D3C98" filter="url(#shadow)"/>
      <text x="0" y="0" text-anchor="middle" font-size="10" fill="white" font-weight="bold">vi</text>
      <text x="0" y="12" text-anchor="middle" font-size="8" fill="white">(1976)</text>
    </g>
    
    <!-- Emacs (1976) - 분기 -->
    <path d="M 445 170 Q 470 155 495 150" stroke="#9B59B6" stroke-width="1" fill="none" marker-end="url(#arrow)"/>
    <g transform="translate(520,150)">
      <rect x="-35" y="-12" width="70" height="24" rx="6" fill="#663399" filter="url(#shadow)"/>
      <text x="0" y="2" text-anchor="middle" font-size="9" fill="white" font-weight="bold">Emacs (1976)</text>
    </g>
    
    <!-- Vim (1991) -->
    <line x1="445" y1="170" x2="520" y2="170" stroke="#9B59B6" stroke-width="1" marker-end="url(#arrow)"/>
    <g transform="translate(560,170)">
      <rect x="-30" y="-15" width="60" height="30" rx="8" fill="#512E5F" filter="url(#shadow)"/>
      <text x="0" y="0" text-anchor="middle" font-size="10" fill="white" font-weight="bold">Vim</text>
      <text x="0" y="12" text-anchor="middle" font-size="8" fill="white">(1991)</text>
    </g>
    
    <!-- Notepad++ (2003) -->
    <line x1="590" y1="170" x2="670" y2="170" stroke="#9B59B6" stroke-width="1" marker-end="url(#arrow)"/>
    <g transform="translate(720,170)">
      <rect x="-45" y="-15" width="90" height="30" rx="8" fill="#2E7D32" filter="url(#shadow)"/>
      <text x="0" y="0" text-anchor="middle" font-size="10" fill="white" font-weight="bold">Notepad++</text>
      <text x="0" y="12" text-anchor="middle" font-size="8" fill="white">(2003)</text>
    </g>
    
    <!-- Sublime Text (2007) -->
    <line x1="765" y1="170" x2="835" y2="170" stroke="#9B59B6" stroke-width="1" marker-end="url(#arrow)"/>
    <g transform="translate(880,170)">
      <rect x="-45" y="-15" width="90" height="30" rx="8" fill="#4A4A4A" filter="url(#shadow)"/>
      <text x="0" y="0" text-anchor="middle" font-size="10" fill="white" font-weight="bold">Sublime Text</text>
      <text x="0" y="12" text-anchor="middle" font-size="8" fill="white">(2007)</text>
    </g>
    
    <!-- Atom (2014) -->
    <line x1="925" y1="170" x2="1000" y2="170" stroke="#9B59B6" stroke-width="1" marker-end="url(#arrow)"/>
    <g transform="translate(1030,170)">
      <rect x="-30" y="-15" width="60" height="30" rx="8" fill="#333333" filter="url(#shadow)"/>
      <text x="0" y="0" text-anchor="middle" font-size="10" fill="white" font-weight="bold">Atom</text>
      <text x="0" y="12" text-anchor="middle" font-size="8" fill="white">(2014)</text>
    </g>
  </g>

  <!-- =============== 중단: 소프트웨어 개발 IDE =============== -->
  <g id="software-ide-timeline">
    <rect x="80" y="220" width="1300" height="80" fill="url(#softwareIDEGrad)" opacity="0.08" rx="12"/>
    <text x="100" y="240" font-size="14" font-weight="bold" fill="#2980B9">소프트웨어 개발 IDE</text>
    
    <!-- Turbo Pascal (1983) -->
    <g transform="translate(200,270)">
      <rect x="-50" y="-20" width="100" height="40" rx="10" fill="#3498DB" filter="url(#shadow)"/>
      <text x="0" y="-3" text-anchor="middle" font-size="11" fill="white" font-weight="bold">Turbo Pascal</text>
      <text x="0" y="10" text-anchor="middle" font-size="9" fill="white">최초 통합 IDE</text>
      <text x="0" y="28" text-anchor="middle" font-size="8" fill="#7f8c8d">(1983)</text>
    </g>
    
    <!-- Visual Studio (1997) -->
    <line x1="250" y1="270" x2="320" y2="270" stroke="#3498DB" stroke-width="1" marker-end="url(#arrow)"/>
    <g transform="translate(370,270)">
      <rect x="-50" y="-20" width="100" height="40" rx="10" fill="#2980B9" filter="url(#shadow)"/>
      <text x="0" y="-3" text-anchor="middle" font-size="11" fill="white" font-weight="bold">Visual Studio</text>
      <text x="0" y="10" text-anchor="middle" font-size="9" fill="white">엔터프라이즈</text>
      <text x="0" y="28" text-anchor="middle" font-size="8" fill="#7f8c8d">(1997)</text>
    </g>
    
    <!-- Eclipse (2001) -->
    <line x1="420" y1="270" x2="490" y2="270" stroke="#3498DB" stroke-width="1" marker-end="url(#arrow)"/>
    <g transform="translate(540,270)">
      <rect x="-40" y="-20" width="80" height="40" rx="10" fill="#21618C" filter="url(#shadow)"/>
      <text x="0" y="-3" text-anchor="middle" font-size="11" fill="white" font-weight="bold">Eclipse</text>
      <text x="0" y="10" text-anchor="middle" font-size="9" fill="white">Java 중심</text>
      <text x="0" y="28" text-anchor="middle" font-size="8" fill="#7f8c8d">(2001)</text>
    </g>
    
    <!-- IntelliJ IDEA (2001) - 분기 -->
    <path d="M 580 270 Q 610 250 640 245" stroke="#3498DB" stroke-width="1" fill="none" marker-end="url(#arrow)"/>
    <g transform="translate(680,235)">
      <rect x="-45" y="-15" width="90" height="30" rx="8" fill="#1A5276" filter="url(#shadow)"/>
      <text x="0" y="0" text-anchor="middle" font-size="10" fill="white" font-weight="bold">IntelliJ IDEA</text>
      <text x="0" y="12" text-anchor="middle" font-size="8" fill="white">(2001)</text>
    </g>
    
    <!-- NetBeans/Xcode -->
    <line x1="580" y1="270" x2="650" y2="270" stroke="#3498DB" stroke-width="1" marker-end="url(#arrow)"/>
    <g transform="translate(720,270)">
      <rect x="-60" y="-20" width="120" height="40" rx="10" fill="#154360" filter="url(#shadow)"/>
      <text x="0" y="-3" text-anchor="middle" font-size="11" fill="white" font-weight="bold">NetBeans/Xcode</text>
      <text x="0" y="10" text-anchor="middle" font-size="9" fill="white">플랫폼별 IDE</text>
      <text x="0" y="28" text-anchor="middle" font-size="8" fill="#7f8c8d">(2000s)</text>
    </g>
    
    <!-- Android Studio (2013) -->
    <line x1="780" y1="270" x2="850" y2="270" stroke="#3498DB" stroke-width="1" marker-end="url(#arrow)"/>
    <g transform="translate(920,270)">
      <rect x="-55" y="-20" width="110" height="40" rx="10" fill="#0F4C75" filter="url(#shadow)"/>
      <text x="0" y="-3" text-anchor="middle" font-size="11" fill="white" font-weight="bold">Android Studio</text>
      <text x="0" y="10" text-anchor="middle" font-size="9" fill="white">모바일 개발</text>
      <text x="0" y="28" text-anchor="middle" font-size="8" fill="#7f8c8d">(2013)</text>
    </g>
    
    <!-- VS Code (2015) - 클라우드 전환점 -->
    <line x1="975" y1="270" x2="1145" y2="270" stroke="#27AE60" stroke-width="2" marker-end="url(#arrow)"/>
    <g transform="translate(1200,270)">
      <rect x="-45" y="-20" width="90" height="40" rx="10" fill="url(#cloudGrad)" filter="url(#glow)"/>
      <text x="0" y="-3" text-anchor="middle" font-size="11" fill="white" font-weight="bold">VS Code</text>
      <text x="0" y="10" text-anchor="middle" font-size="9" fill="white">오픈소스</text>
      <text x="0" y="28" text-anchor="middle" font-size="8" fill="#7f8c8d">(2015)</text>
    </g>
    
    <!-- Codespaces/Gitpod (2020) -->
    <line x1="1245" y1="270" x2="1330" y2="270" stroke="#27AE60" stroke-width="2" marker-end="url(#arrow)"/>
    <g transform="translate(1400,270)">
      <rect x="-60" y="-20" width="120" height="40" rx="10" fill="#196F3D" filter="url(#shadow)"/>
      <text x="0" y="-3" text-anchor="middle" font-size="11" fill="white" font-weight="bold">Codespaces</text>
      <text x="0" y="10" text-anchor="middle" font-size="9" fill="white">클라우드 IDE</text>
      <text x="0" y="28" text-anchor="middle" font-size="8" fill="#7f8c8d">(2020)</text>
    </g>
  </g>

  <!-- =============== 하단: 데이터/분석 IDE =============== -->
  <g id="data-ide-timeline">
    <rect x="80" y="310" width="1300" height="95" fill="url(#dataIDEGrad)" opacity="0.08" rx="12"/>
    <text x="100" y="340" font-size="14" font-weight="bold" fill="#FF6347">데이터/분석 IDE</text>
    
    <!-- SQL*Plus (1970s) -->
    <g transform="translate(150,370)">
      <rect x="-45" y="-20" width="90" height="40" rx="10" fill="#FF8C00" filter="url(#shadow)"/>
      <text x="0" y="-3" text-anchor="middle" font-size="11" fill="white" font-weight="bold">SQL*Plus</text>
      <text x="0" y="10" text-anchor="middle" font-size="9" fill="white">데이터베이스</text>
      <text x="0" y="28" text-anchor="middle" font-size="8" fill="#7f8c8d">(1970s)</text>
    </g>
    
    <!-- SAS (1976) -->
    <line x1="195" y1="370" x2="245" y2="370" stroke="#FF8C00" stroke-width="1" marker-end="url(#arrow)"/>
    <g transform="translate(280,370)">
      <rect x="-30" y="-20" width="60" height="40" rx="10" fill="#FF6347" filter="url(#shadow)"/>
      <text x="0" y="-3" text-anchor="middle" font-size="11" fill="white" font-weight="bold">SAS</text>
      <text x="0" y="10" text-anchor="middle" font-size="9" fill="white">통계</text>
      <text x="0" y="28" text-anchor="middle" font-size="8" fill="#7f8c8d">(1976)</text>
    </g>
    
    <!-- MATLAB (1984) -->
    <line x1="310" y1="370" x2="360" y2="370" stroke="#FF8C00" stroke-width="1" marker-end="url(#arrow)"/>
    <g transform="translate(400,370)">
      <rect x="-40" y="-20" width="80" height="40" rx="10" fill="#D2691E" filter="url(#shadow)"/>
      <text x="0" y="-3" text-anchor="middle" font-size="11" fill="white" font-weight="bold">MATLAB</text>
      <text x="0" y="10" text-anchor="middle" font-size="9" fill="white">수치계산</text>
      <text x="0" y="28" text-anchor="middle" font-size="8" fill="#7f8c8d">(1984)</text>
    </g>
    
    <!-- SPSS (1989) -->
    <line x1="440" y1="370" x2="490" y2="370" stroke="#FF8C00" stroke-width="1" marker-end="url(#arrow)"/>
    <g transform="translate(530,370)">
      <rect x="-35" y="-20" width="70" height="40" rx="10" fill="#CD853F" filter="url(#shadow)"/>
      <text x="0" y="-3" text-anchor="middle" font-size="11" fill="white" font-weight="bold">SPSS</text>
      <text x="0" y="10" text-anchor="middle" font-size="9" fill="white">사회과학</text>
      <text x="0" y="28" text-anchor="middle" font-size="8" fill="#7f8c8d">(1989)</text>
    </g>
    
    <!-- Excel VBA (1993) -->
    <line x1="565" y1="370" x2="615" y2="370" stroke="#FF8C00" stroke-width="1" marker-end="url(#arrow)"/>
    <g transform="translate(660,370)">
      <rect x="-40" y="-20" width="80" height="40" rx="10" fill="#B8860B" filter="url(#shadow)"/>
      <text x="0" y="-3" text-anchor="middle" font-size="11" fill="white" font-weight="bold">Excel VBA</text>
      <text x="0" y="10" text-anchor="middle" font-size="9" fill="white">스프레드시트</text>
      <text x="0" y="28" text-anchor="middle" font-size="8" fill="#7f8c8d">(1993)</text>
    </g>
    
    <!-- RStudio (2011) - 데이터과학 시대 -->
    <line x1="700" y1="370" x2="780" y2="370" stroke="#FF8C00" stroke-width="2" marker-end="url(#arrow)"/>
    <g transform="translate(830,370)">
      <rect x="-40" y="-20" width="80" height="40" rx="10" fill="#FF4500" filter="url(#glow)"/>
      <text x="0" y="-3" text-anchor="middle" font-size="11" fill="white" font-weight="bold">RStudio</text>
      <text x="0" y="10" text-anchor="middle" font-size="9" fill="white">R 전용</text>
      <text x="0" y="28" text-anchor="middle" font-size="8" fill="#7f8c8d">(2011)</text>
    </g>
    
    <!-- Jupyter (2014) -->
    <line x1="870" y1="370" x2="920" y2="370" stroke="#FF8C00" stroke-width="1" marker-end="url(#arrow)"/>
    <g transform="translate(970,370)">
      <rect x="-40" y="-20" width="80" height="40" rx="10" fill="#FF2D2D" filter="url(#glow)"/>
      <text x="0" y="-3" text-anchor="middle" font-size="11" fill="white" font-weight="bold">Jupyter</text>
      <text x="0" y="10" text-anchor="middle" font-size="9" fill="white">노트북</text>
      <text x="0" y="28" text-anchor="middle" font-size="8" fill="#7f8c8d">(2014)</text>
    </g>
    
    <!-- Spyder (2012) - 분기 -->
    <path d="M 1010 370 Q 1040 340 1065 330" stroke="#FF8C00" stroke-width="1" fill="none" marker-end="url(#arrow)"/>
    <g transform="translate(1100,330)">
      <rect x="-35" y="-15" width="70" height="30" rx="8" fill="#DC143C" filter="url(#shadow)"/>
      <text x="0" y="0" text-anchor="middle" font-size="10" fill="white" font-weight="bold">Spyder</text>
      <text x="0" y="12" text-anchor="middle" font-size="8" fill="white">(2012)</text>
    </g>
    
    <!-- Google Colab (2017) -->
    <line x1="1010" y1="370" x2="1080" y2="370" stroke="#FF8C00" stroke-width="1" marker-end="url(#arrow)"/>
    <g transform="translate(1140,370)">
      <rect x="-50" y="-20" width="100" height="40" rx="10" fill="#B22222" filter="url(#shadow)"/>
      <text x="0" y="-3" text-anchor="middle" font-size="11" fill="white" font-weight="bold">Google Colab</text>
      <text x="0" y="10" text-anchor="middle" font-size="9" fill="white">클라우드</text>
      <text x="0" y="28" text-anchor="middle" font-size="8" fill="#7f8c8d">(2017)</text>
    </g>
    
    <!-- Databricks (2018) -->
    <line x1="1190" y1="370" x2="1260" y2="370" stroke="#FF8C00" stroke-width="1" marker-end="url(#arrow)"/>
    <g transform="translate(1320,370)">
      <rect x="-50" y="-20" width="100" height="40" rx="10" fill="#8B0000" filter="url(#shadow)"/>
      <text x="0" y="-3" text-anchor="middle" font-size="11" fill="white" font-weight="bold">Databricks</text>
      <text x="0" y="10" text-anchor="middle" font-size="9" fill="white">빅데이터</text>
      <text x="0" y="28" text-anchor="middle" font-size="8" fill="#7f8c8d">(2018)</text>
    </g>
    
    <!-- Positron (2024) -->
    <line x1="1370" y1="370" x2="1420" y2="370" stroke="#E74C3C" stroke-width="2" marker-end="url(#arrow)"/>
    <g transform="translate(1470,370)">
      <rect x="-45" y="-20" width="90" height="40" rx="10" fill="url(#aiGrad)" filter="url(#aiGlow)"/>
      <text x="0" y="-3" text-anchor="middle" font-size="11" fill="white" font-weight="bold">Positron</text>
      <text x="0" y="10" text-anchor="middle" font-size="9" fill="white">차세대</text>
      <text x="0" y="28" text-anchor="middle" font-size="8" fill="#7f8c8d">(2024)</text>
    </g>
  </g>

  <!-- =============== AI 수렴 및 통합 영역 =============== -->
  <g id="ai-convergence">
    <!-- 3개 라인에서 AI 영역으로 수렴 화살표 -->
    <!-- 편집기 라인에서 -->
    <path d="M 1075 170 Q 1350 200 1500 300" stroke="#E74C3C" stroke-width="1" fill="none" marker-end="url(#arrow)"/>
    
    <!-- 소프트웨어 IDE에서 -->
    <path d="M 1460 270 Q 1480 285 1500 300" stroke="#E74C3C" stroke-width="1" fill="none" marker-end="url(#arrow)"/>
    
    <!-- 데이터 IDE에서 -->  
    <path d="M 1515 370 Q 1507 350 1500 330" stroke="#E74C3C" stroke-width="1" fill="none" marker-end="url(#arrow)"/>
    
    <!-- GitHub Copilot (2021) -->
    <g transform="translate(1550,280)">
      <rect x="-55" y="-15" width="110" height="30" rx="8" fill="url(#aiGrad)" filter="url(#aiGlow)"/>
      <text x="0" y="2" text-anchor="middle" font-size="11" fill="white" font-weight="bold">GitHub Copilot</text>
      <text x="0" y="20" text-anchor="middle" font-size="10" fill="black">(2021)</text>
    </g>
    
    <!-- Cursor IDE (2022) -->
    <g transform="translate(1550,320)">
      <rect x="-45" y="-15" width="90" height="30" rx="8" fill="#C0392B" filter="url(#shadow)"/>
      <text x="0" y="2" text-anchor="middle" font-size="11" fill="white" font-weight="bold">Cursor IDE</text>
      <text x="0" y="20" text-anchor="middle" font-size="10" fill="black">(2022)</text>
    </g>
    
    <!-- Claude Code (2024) -->
    <g transform="translate(1550,360)">
      <rect x="-45" y="-15" width="90" height="30" rx="8" fill="url(#aiGrad)" filter="url(#aiGlow)"/>
      <text x="0" y="2" text-anchor="middle" font-size="11" fill="white" font-weight="bold">Claude Code</text>
      <text x="0" y="20" text-anchor="middle" font-size="10" fill="black">(2024)</text>
    </g>
    
    <!-- 최종 수렴: AI 통합 개발 환경 -->
    <path d="M 1605 280 Q 1650 310 1680 330" stroke="#E74C3C" stroke-width="3" fill="none" marker-end="url(#arrow)"/>
    <path d="M 1595 320 Q 1635 325 1680 330" stroke="#E74C3C" stroke-width="3" fill="none" marker-end="url(#arrow)"/>
    <path d="M 1595 360 Q 1635 345 1680 330" stroke="#E74C3C" stroke-width="3" fill="none" marker-end="url(#arrow)"/>
    
    <g transform="translate(1680,330)">
      <ellipse cx="0" cy="0" rx="80" ry="45" fill="none" stroke="#E74C3C" stroke-width="4" stroke-dasharray="12,6"/>
      <rect x="-70" y="-30" width="140" height="60" rx="15" fill="url(#convergeGrad)" filter="url(#aiGlow)"/>
      <text x="0" y="-12" text-anchor="middle" font-size="13" fill="white" font-weight="bold">AI 통합 개발환경</text>
      <text x="0" y="2" text-anchor="middle" font-size="10" fill="white">텍스트 + 소프트웨어</text>
      <text x="0" y="15" text-anchor="middle" font-size="10" fill="white">+ 데이터 분석</text>
      <text x="0" y="70" text-anchor="middle" font-size="15" fill="#E74C3C" font-weight="bold">2024-2030</text>
    </g>
  </g>

  <!-- 범례 -->
  <g id="legend" transform="translate(1570,70)">
    <rect x="0" y="0" width="200" height="140" fill="white" stroke="#bdc3c7" rx="8" opacity="0.95" filter="url(#shadow)"/>
    <text x="100" y="20" text-anchor="middle" font-size="13" font-weight="bold" fill="#2c3e50">IDE 진화 단계</text>
    
    <circle cx="15" cy="40" r="6" fill="#9B59B6"/>
    <text x="28" y="44" font-size="11" fill="#2c3e50">초기 편집기</text>
    
    <circle cx="15" cy="60" r="6" fill="#3498DB"/>
    <text x="28" y="64" font-size="11" fill="#2c3e50">소프트웨어 IDE</text>
    
    <circle cx="15" cy="80" r="6" fill="#FF8C00"/>
    <text x="28" y="84" font-size="11" fill="#2c3e50">데이터 IDE</text>
    
    <circle cx="15" cy="100" r="6" fill="#27AE60"/>
    <text x="28" y="104" font-size="11" fill="#2c3e50">클라우드/협업</text>
    
    <circle cx="15" cy="120" r="6" fill="#E74C3C"/>
    <text x="28" y="124" font-size="11" fill="#2c3e50">AI 시대</text>
  </g>

  <!-- 하단 시간축 -->
  <g id="timeline-axis">
    <line x1="80" y1="420" x2="1720" y2="420" stroke="#95a5a6" stroke-width="1"/>
    <text x="150" y="445" text-anchor="middle" font-size="12" fill="#7f8c8d">1950s-60s</text>
    <text x="300" y="445" text-anchor="middle" font-size="12" fill="#7f8c8d">1970s</text>
    <text x="500" y="445" text-anchor="middle" font-size="12" fill="#7f8c8d">1980s</text>
    <text x="700" y="445" text-anchor="middle" font-size="12" fill="#7f8c8d">1990s</text>
    <text x="900" y="445" text-anchor="middle" font-size="12" fill="#7f8c8d">2000s</text>
    <text x="1200" y="445" text-anchor="middle" font-size="13" fill="#27AE60" font-weight="bold">2010s-클라우드</text>
    <text x="1400" y="445" text-anchor="middle" font-size="13" fill="#E74C3C" font-weight="bold">2020s-AI</text>
    <text x="1680" y="445" text-anchor="middle" font-size="14" fill="#E74C3C" font-weight="bold">미래</text>
  </g>
  
</svg>